<svg width="22" height="22" viewBox="0 0 22 22" fill="none" xmlns="http://www.w3.org/2000/svg">
<g id="Icon">
<path id="Vector" d="M21.352 3.68479C20.0187 3.09424 18.6842 2.86957 17.3505 2.86957C13.1166 2.8692 8.88305 5.1323 4.64915 5.1323C3.58732 5.1323 2.52618 4.99001 1.46435 4.63431C1.34507 4.59438 1.22545 4.57551 1.10858 4.57551C0.516992 4.57551 0 5.05898 0 5.7301V17.2456C0 17.704 0.248527 18.1384 0.647615 18.3149C1.981 18.9058 3.31542 19.1304 4.64915 19.1304C8.88305 19.1304 13.117 16.8673 17.3509 16.8673C18.4127 16.8673 19.4738 17.0096 20.5356 17.3653C20.6549 17.4053 20.7745 17.4241 20.8914 17.4241C21.483 17.4241 22 16.9407 22 16.2695V4.75445C21.9997 4.29566 21.7511 3.86155 21.352 3.68479ZM1.64997 6.50721C2.34159 6.69015 3.06345 6.78198 3.80594 6.83134C3.60382 7.8981 2.71558 8.70207 1.64997 8.70207V6.50721ZM1.64997 16.8517V15.1175C2.83142 15.1175 3.78738 16.1073 3.83997 17.3461C3.06551 17.2804 2.34159 17.1171 1.64997 16.8517ZM10.9998 14.4845C9.48082 14.4845 8.24987 12.9241 8.24987 11C8.24987 9.07556 9.48116 7.51553 10.9998 7.51553C12.5185 7.51553 13.7498 9.07556 13.7498 11C13.7498 12.9248 12.5181 14.4845 10.9998 14.4845ZM20.3497 15.4928C19.7474 15.3335 19.1222 15.2442 18.4825 15.1864C18.6842 14.2398 19.4278 13.5212 20.3497 13.3978V15.4928ZM20.3497 6.92281C19.2879 6.78089 18.4639 5.8448 18.4312 4.68875C19.1029 4.76752 19.7406 4.91488 20.3497 5.14827V6.92281Z" fill="#0065FC"/>
</g>
</svg>
