<svg width="22" height="22" viewBox="0 0 22 22" fill="none" xmlns="http://www.w3.org/2000/svg">
<g id="Icon">
<path id="Vector" d="M12.7396 2.0625C12.7396 3.2016 11.8362 4.125 10.7228 4.125C9.60937 4.125 8.70601 3.2016 8.70601 2.0625C8.70601 0.923398 9.60937 0 10.7228 0C11.8362 0 12.7396 0.923398 12.7396 2.0625ZM10.3867 15.125V20.625C10.3867 21.3855 9.78584 22 9.04214 22C8.29845 22 7.69762 21.3855 7.69762 20.625V11.0387L6.4972 13.084C6.11485 13.7328 5.28881 13.9434 4.65226 13.5523C4.01569 13.1613 3.80979 12.3191 4.1923 11.666L6.6409 7.50234C7.36989 6.26055 8.6808 5.5 10.0968 5.5H11.3488C12.7648 5.5 14.0757 6.26055 14.8068 7.50234L17.2522 11.666C17.6345 12.3191 17.4286 13.1613 16.7942 13.5523C16.1555 13.9434 15.332 13.7328 14.9497 13.084L13.748 11.0387V20.625C13.748 21.3855 13.1472 22 12.4035 22C11.6598 22 11.0589 21.3855 11.0589 20.625V15.125H10.3867Z" fill="#0065FC"/>
</g>
</svg>
