<svg width="22" height="22" viewBox="0 0 22 22" fill="none" xmlns="http://www.w3.org/2000/svg">
<g id="Icon">
<path id="Vector" d="M0 8.22829V7.98543C0 5.05861 2.17078 2.56224 5.13047 2.08155C7.05117 1.76375 9.08359 2.38596 10.4844 3.75306L11 4.25468L11.477 3.75306C12.9164 2.38596 14.9102 1.76375 16.8695 2.08155C19.8301 2.56224 22 5.05861 22 7.98543V8.22829C22 9.96595 21.2609 11.6283 19.9547 12.8132L12.1902 19.8769C11.868 20.17 11.4426 20.3333 11 20.3333C10.5574 20.3333 10.132 20.17 9.80977 19.8769L2.04488 12.8132C0.740352 11.6283 1.28906e-05 9.96595 1.28906e-05 8.22829H0Z" fill="#0065FC"/>
</g>
</svg>
