<svg width="22" height="22" viewBox="0 0 22 22" fill="none" xmlns="http://www.w3.org/2000/svg">
<g id="Icon">
<path id="Vector" d="M8.89727 1.21273C9.21067 0.92649 9.69683 0.930411 10.0102 1.21665C11.1191 2.23221 12.1598 3.32619 13.1321 4.51036C13.5741 3.94572 14.0763 3.33011 14.6187 2.82821C14.9361 2.53805 15.4263 2.53805 15.7437 2.83214C17.1339 4.12609 18.3111 5.83568 19.1388 7.45901C19.9544 9.05881 20.4968 10.6939 20.4968 11.8467C20.4968 16.85 16.487 21.0769 11.4968 21.0769C6.4504 21.0769 2.49683 16.8461 2.49683 11.8428C2.49683 10.3371 3.212 8.4981 4.32093 6.67872C5.44192 4.83189 7.02495 2.90664 8.89727 1.21273ZM11.5651 17.3127C12.5816 17.3127 13.4816 17.0382 14.3294 16.4893C16.0209 15.3365 16.475 13.0309 15.4584 11.2193C15.2776 10.8664 14.8156 10.8429 14.5544 11.1409L13.5419 12.2898C13.2767 12.5878 12.7986 12.5799 12.5495 12.2702C11.8866 11.4468 10.7013 9.97635 10.0263 9.14116C9.77316 8.82747 9.29102 8.82355 9.03388 9.13723C7.67584 10.8037 6.99281 11.8545 6.99281 13.0348C6.99683 15.7207 9.02986 17.3127 11.5651 17.3127Z" fill="#0065FC"/>
</g>
</svg>
